<svg xmlns="http://www.w3.org/2000/svg" viewBox="0 0 1024 1024">
  <g fill="none" fill-rule="evenodd" transform="translate(112 78) scale(.78)">
    <path
      fill="#76A8F7"
      d="M512 118c113.4 0 205.3 91.9 205.3 205.3v225.4C717.3 662.1 625.4 754 512 754s-205.3-91.9-205.3-205.3V323.3C306.7 209.9 398.6 118 512 118Z"
    />
    <path
      fill="#4B8EF6"
      fill-opacity=".78"
      d="M239.8 439.5c33.9 0 61.4 27.5 61.4 61.4 0 116.4 94.4 210.8 210.8 210.8s210.8-94.4 210.8-210.8c0-33.9 27.5-61.4 61.4-61.4s61.4 27.5 61.4 61.4c0 163.5-121.8 298.6-279.5 319.4v84.2h76.2c33.9 0 61.4 27.5 61.4 61.4s-27.5 61.4-61.4 61.4H381.7c-33.9 0-61.4-27.5-61.4-61.4s27.5-61.4 61.4-61.4h76.2v-84.2C300.2 799.5 178.4 664.4 178.4 500.9c0-33.9 27.5-61.4 61.4-61.4Z"
    />
    <rect x="395" y="270" width="234" height="62" rx="31" fill="#FFFFFF" />
    <rect x="395" y="432" width="234" height="62" rx="31" fill="#FFFFFF" />
  </g>
</svg>
